<svg xmlns="http://www.w3.org/2000/svg" width="117.88" height="140.98" viewBox="0 0 117.88 140.98"><title>spaceship</title><path d="M99.35,129.22c-.79-14.78-23.22-14.78-24,0v1.06c0,10.82,7.92,27.18,10.83,30.08a1.47,1.47,0,0,0,2.11,0c3-3,10.82-19.26,10.82-30.08A4.24,4.24,0,0,0,99.35,129.22Z" transform="translate(-23.86 -19.83)" fill="#333"/><path d="M40.79,84.23c7.92-.42,7.92-12.45,0-12.87h-.57c-5.8,0-14.57,4.24-16.12,5.8a.79.79,0,0,0,0,1.13c1.62,1.63,10.32,5.8,16.12,5.8A2.13,2.13,0,0,0,40.79,84.23Z" transform="translate(-23.86 -19.83)" fill="#333"/><path d="M41.78,65.85c6.71-.36,6.64-10.47,0-10.75a1.39,1.39,0,0,1-.5-.07c-5,0-12.23,3.6-13.58,4.95a.69.69,0,0,0,0,1c1.35,1.34,8.7,4.88,13.58,5C41.42,65.92,41.63,65.85,41.78,65.85Z" transform="translate(-23.86 -19.83)" fill="#333"/><path d="M41.78,89.75a1.23,1.23,0,0,1-.5-.08c-4.88.08-12.23,3.61-13.58,5a.69.69,0,0,0,0,1c1.35,1.35,8.7,4.88,13.58,5a1.44,1.44,0,0,0,.5-.07C48.42,100.21,48.42,90,41.78,89.75Z" transform="translate(-23.86 -19.83)" fill="#333"/><path d="M139.57,73.13,127.76,63a33.07,33.07,0,0,0-21.5-7.92H87.17l-.78-1.63a15.55,15.55,0,0,0-15.27-8.91L56.27,45.69A3,3,0,0,0,53.8,50a57.77,57.77,0,0,1,4.59,14.77h-4a2.69,2.69,0,0,0-2.68,2.69V87.84a2.77,2.77,0,0,0,2.68,2.68h4a58.3,58.3,0,0,1-4.52,14.85,3.06,3.06,0,0,0,2.47,4.32l14.78,1.2a15.56,15.56,0,0,0,15.35-9l.7-1.56h19.09a32.72,32.72,0,0,0,21.43-8L139.5,82.25A5.82,5.82,0,0,0,139.57,73.13ZM101.39,86.85a9.06,9.06,0,1,1,9-9A9.12,9.12,0,0,1,101.39,86.85Z" transform="translate(-23.86 -19.83)" fill="#333"/><path d="M34.93,27.33V34H33.67V27.35L30,20H31.4l2.88,5.82L37.16,20h1.36Z" transform="translate(-23.86 -19.83)" fill="#333"/><path d="M47.93,32.13A3.51,3.51,0,0,1,46.1,34a3.38,3.38,0,0,1-1.34.27h-1A3.38,3.38,0,0,1,42.42,34a3.49,3.49,0,0,1-1.1-.74,3.56,3.56,0,0,1-.74-1.09,3.37,3.37,0,0,1-.26-1.34V23.27a3.34,3.34,0,0,1,.26-1.34,3.45,3.45,0,0,1,.74-1.09,3.33,3.33,0,0,1,1.1-.74,3.38,3.38,0,0,1,1.34-.27h1a3.4,3.4,0,0,1,2.43,1,3.45,3.45,0,0,1,.74,1.09,3.34,3.34,0,0,1,.27,1.34v7.52A3.38,3.38,0,0,1,47.93,32.13Zm-1-8.86a2.16,2.16,0,0,0-.18-.88,2.29,2.29,0,0,0-.48-.7,2,2,0,0,0-.71-.48A2.12,2.12,0,0,0,44.7,21h-.88a2.12,2.12,0,0,0-.87.18,2.16,2.16,0,0,0-.72.48,2.29,2.29,0,0,0-.48.7,2.16,2.16,0,0,0-.17.88v7.52a2.11,2.11,0,0,0,.17.87,2.29,2.29,0,0,0,1.2,1.2,2.11,2.11,0,0,0,.87.17h.88a2.11,2.11,0,0,0,.87-.17,2.2,2.2,0,0,0,.71-.49,2.34,2.34,0,0,0,.48-.71,2.12,2.12,0,0,0,.18-.87Z" transform="translate(-23.86 -19.83)" fill="#333"/><path d="M58.61,32.13a3.4,3.4,0,0,1-.74,1.09,3.45,3.45,0,0,1-1.09.74,3.34,3.34,0,0,1-1.34.27h-1A3.39,3.39,0,0,1,53.1,34,3.45,3.45,0,0,1,52,33.22a3.4,3.4,0,0,1-1-2.43V20h1.26V30.79a2.29,2.29,0,0,0,.17.87,2.39,2.39,0,0,0,1.2,1.2,2.13,2.13,0,0,0,.88.17h.87a2.13,2.13,0,0,0,.88-.17,2.31,2.31,0,0,0,.71-.49,2.15,2.15,0,0,0,.47-.71,2.12,2.12,0,0,0,.18-.87V20h1.26V30.79A3.38,3.38,0,0,1,58.61,32.13Z" transform="translate(-23.86 -19.83)" fill="#333"/><path d="M71.74,30.77H67.31L66.39,34H65.08l4.1-14h.67L74,34h-1.3Zm-4.09-1.2h3.76l-1.85-6.46,0-.52,0,.52Z" transform="translate(-23.86 -19.83)" fill="#333"/><path d="M82.35,34l-3.8-6H76.82v6H75.56V20H80a3.52,3.52,0,0,1,1.34.26,3.61,3.61,0,0,1,1.1.74,3.47,3.47,0,0,1,.73,1.1,3.38,3.38,0,0,1,.27,1.34v1.14A3.38,3.38,0,0,1,83.17,26a3.47,3.47,0,0,1-.73,1.1,3.41,3.41,0,0,1-1.1.73,3.34,3.34,0,0,1-1.34.27l3.8,6Zm-.17-10.56A2.29,2.29,0,0,0,82,22.6a2.34,2.34,0,0,0-.48-.71,2.31,2.31,0,0,0-.71-.49,2.29,2.29,0,0,0-.87-.17H76.82v5.62H80a2.29,2.29,0,0,0,.87-.17,2.31,2.31,0,0,0,.71-.49,2.34,2.34,0,0,0,.48-.71,2.29,2.29,0,0,0,.17-.87Z" transform="translate(-23.86 -19.83)" fill="#333"/><path d="M86.2,34V20h7.89v1.2H87.46v5.2h5.37v1.2H87.46v5.2h6.63V34Z" transform="translate(-23.86 -19.83)" fill="#333"/><path d="M107.71,34v-6.4h-5.36V34h-1.26V20h1.26v6.4h5.36V20H109V34Z" transform="translate(-23.86 -19.83)" fill="#333"/><path d="M112.17,34V20h7.88v1.2h-6.62v5.2h5.36v1.2h-5.36v5.2h6.62V34Z" transform="translate(-23.86 -19.83)" fill="#333"/><path d="M129,34l-3.8-6h-1.73v6h-1.26V20h4.44a3.52,3.52,0,0,1,1.34.26,3.45,3.45,0,0,1,1.09.74,3.33,3.33,0,0,1,.74,1.1,3.38,3.38,0,0,1,.27,1.34v1.14a3.38,3.38,0,0,1-.27,1.34,3.33,3.33,0,0,1-.74,1.1,3.26,3.26,0,0,1-1.09.73,3.34,3.34,0,0,1-1.34.27l3.8,6Zm-.17-10.56a2.29,2.29,0,0,0-.17-.87,2.34,2.34,0,0,0-.48-.71,2.14,2.14,0,0,0-1.59-.66h-3.12v5.62h3.12a2.14,2.14,0,0,0,1.59-.66,2.34,2.34,0,0,0,.48-.71,2.29,2.29,0,0,0,.17-.87Z" transform="translate(-23.86 -19.83)" fill="#333"/><path d="M132.89,34V20h7.89v1.2h-6.63v5.2h5.37v1.2h-5.37v5.2h6.63V34Z" transform="translate(-23.86 -19.83)" fill="#333"/></svg>